<svg width="144" height="50" viewBox="0 0 144 50" fill="none" xmlns="http://www.w3.org/2000/svg">
<rect x="33.7144" y="9.57227" width="12.1219" height="9.69754" rx="1.5" transform="rotate(45 33.7144 9.57227)" fill="#E26E75"/>
<rect x="14.8574" y="25" width="12.1219" height="9.69754" rx="1.5" transform="rotate(45 14.8574 25)" fill="#E26E75"/>
<rect x="25.1431" y="1" width="9.69754" height="9.69754" rx="1.5" transform="rotate(45 25.1431 1)" fill="#E26E75"/>
<rect x="25.1431" y="35.2852" width="9.69754" height="9.69754" rx="1.5" transform="rotate(45 25.1431 35.2852)" fill="#E26E75"/>
<rect x="16.5713" y="9.57227" width="33.9414" height="9.69754" rx="1.5" transform="rotate(45 16.5713 9.57227)" fill="#E26E75"/>
<path d="M67.55 22.375H64.55C64.5167 22.0083 64.45 21.625 64.35 21.225C64.2667 20.825 64.1167 20.4667 63.9 20.15C63.6833 19.8167 63.3667 19.5417 62.95 19.325C62.55 19.1083 62.0083 19 61.325 19C60.325 19 59.5833 19.225 59.1 19.675C58.6167 20.125 58.375 20.6833 58.375 21.35C58.375 22.3667 58.8667 22.9833 59.85 23.2C60.85 23.4 61.9333 23.6 63.1 23.8C64.2833 24 65.3667 24.4167 66.35 25.05C67.35 25.6667 67.85 26.9 67.85 28.75C67.85 29.6 67.6917 30.375 67.375 31.075C67.0583 31.7583 66.6083 32.3333 66.025 32.8C65.4583 33.2667 64.7667 33.625 63.95 33.875C63.15 34.125 62.275 34.25 61.325 34.25C60.125 34.25 59.0917 34.0833 58.225 33.75C57.375 33.4 56.6833 32.95 56.15 32.4C55.6333 31.85 55.2667 31.2333 55.05 30.55C54.85 29.85 54.8 29.1417 54.9 28.425H58.05C58.0833 28.9083 58.1333 29.3667 58.2 29.8C58.2833 30.2333 58.4333 30.6167 58.65 30.95C58.8833 31.2667 59.2167 31.525 59.65 31.725C60.0833 31.9083 60.675 32 61.425 32C62.6417 32 63.4917 31.75 63.975 31.25C64.475 30.7333 64.725 30.15 64.725 29.5C64.725 28.4167 64.225 27.75 63.225 27.5C62.2417 27.25 61.1583 27.0167 59.975 26.8C58.7917 26.5667 57.7 26.1333 56.7 25.5C55.7167 24.85 55.225 23.6 55.225 21.75C55.225 21.0333 55.3667 20.375 55.65 19.775C55.9333 19.1583 56.3333 18.6333 56.85 18.2C57.3833 17.75 58.025 17.4 58.775 17.15C59.525 16.8833 60.35 16.75 61.25 16.75C62.4 16.75 63.3833 16.8917 64.2 17.175C65.0333 17.4583 65.7083 17.85 66.225 18.35C66.7417 18.85 67.1083 19.45 67.325 20.15C67.5417 20.8333 67.6167 21.575 67.55 22.375ZM69.5723 27.85C69.5723 27.0167 69.7056 26.2 69.9723 25.4C70.2556 24.6 70.6473 23.9 71.1473 23.3C71.6639 22.6833 72.2806 22.1917 72.9973 21.825C73.7139 21.4417 74.5056 21.25 75.3723 21.25C77.1056 21.25 78.4889 21.8667 79.5223 23.1C80.5723 24.3167 81.1389 26.0833 81.2223 28.4H72.3473C72.4639 29.4833 72.8139 30.275 73.3973 30.775C73.9973 31.2583 74.7139 31.5 75.5473 31.5C76.0306 31.5 76.4306 31.4333 76.7473 31.3C77.0806 31.1667 77.3473 31.0083 77.5473 30.825C77.7639 30.6417 77.9306 30.45 78.0473 30.25C78.1639 30.05 78.2556 29.8833 78.3223 29.75H81.0723C81.0389 30.1667 80.9056 30.6417 80.6723 31.175C80.4389 31.6917 80.1056 32.1833 79.6723 32.65C79.2389 33.1 78.6806 33.4833 77.9973 33.8C77.3139 34.1 76.5056 34.25 75.5723 34.25C74.6723 34.25 73.8473 34.075 73.0973 33.725C72.3473 33.375 71.7139 32.9083 71.1973 32.325C70.6806 31.7417 70.2806 31.0667 69.9973 30.3C69.7139 29.5167 69.5723 28.7 69.5723 27.85ZM75.4723 23.5C74.8056 23.5 74.2056 23.6917 73.6723 24.075C73.1389 24.4583 72.7639 25.0667 72.5473 25.9H78.2723C78.1889 25.1333 77.8973 24.5417 77.3973 24.125C76.9139 23.7083 76.2723 23.5 75.4723 23.5ZM93.7023 34H90.8523V25.75C90.8523 25.1667 90.6607 24.7083 90.2773 24.375C89.894 24.0417 89.394 23.875 88.7773 23.875C88.2773 23.875 87.869 23.9917 87.5523 24.225C87.2357 24.4417 86.9857 24.7167 86.8023 25.05C86.6357 25.3833 86.519 25.75 86.4523 26.15C86.4023 26.55 86.3773 26.9167 86.3773 27.25V34H83.5273V21.5H86.2773V22.5C86.494 22.3333 86.8773 22.0833 87.4273 21.75C87.994 21.4167 88.7773 21.25 89.7773 21.25C90.494 21.25 91.1523 21.3833 91.7523 21.65C92.3523 21.9167 92.819 22.3333 93.1523 22.9C93.2857 22.7667 93.4607 22.6083 93.6773 22.425C93.9107 22.225 94.1857 22.0417 94.5023 21.875C94.8357 21.6917 95.219 21.5417 95.6523 21.425C96.0857 21.3083 96.569 21.25 97.1023 21.25C98.1857 21.25 99.1107 21.5583 99.8773 22.175C100.644 22.7917 101.027 23.7833 101.027 25.15V34H98.1773V25.75C98.1773 25.1667 97.9857 24.7083 97.6023 24.375C97.219 24.0417 96.719 23.875 96.1023 23.875C95.6023 23.875 95.194 23.9917 94.8773 24.225C94.5607 24.4417 94.3107 24.7167 94.1273 25.05C93.9607 25.3833 93.844 25.75 93.7773 26.15C93.7273 26.55 93.7023 26.9167 93.7023 27.25V34ZM114.238 30.325C114.238 30.6917 114.354 30.9667 114.588 31.15C114.821 31.3167 115.129 31.4 115.513 31.4C115.679 31.4 115.846 31.3917 116.013 31.375C116.196 31.3417 116.404 31.3 116.638 31.25V34C116.204 34.0667 115.854 34.1083 115.588 34.125C115.321 34.1417 115.079 34.15 114.863 34.15C114.096 34.15 113.504 34.0583 113.088 33.875C112.671 33.675 112.321 33.3333 112.038 32.85C111.921 32.9333 111.754 33.0583 111.538 33.225C111.321 33.375 111.054 33.525 110.738 33.675C110.421 33.825 110.046 33.9583 109.613 34.075C109.179 34.1917 108.688 34.25 108.138 34.25C107.438 34.25 106.788 34.1417 106.188 33.925C105.588 33.6917 105.071 33.3833 104.638 33C104.204 32.6167 103.863 32.175 103.613 31.675C103.363 31.175 103.238 30.65 103.238 30.1C103.238 28.6833 103.779 27.6667 104.863 27.05C105.963 26.4167 107.371 26.1 109.088 26.1H111.488V25.5C111.488 24.8333 111.246 24.2917 110.763 23.875C110.296 23.4583 109.688 23.25 108.938 23.25C108.171 23.25 107.588 23.4417 107.188 23.825C106.788 24.2083 106.588 24.7667 106.588 25.5H103.538C103.538 24.8333 103.679 24.2333 103.963 23.7C104.246 23.1667 104.629 22.725 105.113 22.375C105.613 22.0083 106.196 21.7333 106.863 21.55C107.529 21.35 108.246 21.25 109.013 21.25C109.713 21.25 110.379 21.3333 111.013 21.5C111.646 21.65 112.196 21.8917 112.663 22.225C113.146 22.5583 113.529 22.975 113.813 23.475C114.096 23.975 114.238 24.5583 114.238 25.225V30.325ZM106.338 30.4C106.338 30.9 106.538 31.3333 106.938 31.7C107.338 32.0667 107.871 32.25 108.538 32.25C109.054 32.25 109.496 32.1583 109.863 31.975C110.229 31.775 110.529 31.5333 110.763 31.25C111.013 30.9667 111.196 30.6667 111.313 30.35C111.429 30.0333 111.488 29.75 111.488 29.5V28.25C110.404 28.2 109.521 28.225 108.838 28.325C108.171 28.4083 107.654 28.55 107.288 28.75C106.921 28.95 106.671 29.1917 106.538 29.475C106.404 29.7583 106.338 30.0667 106.338 30.4ZM128.253 34H125.403V25.75C125.403 25.1667 125.195 24.7083 124.778 24.375C124.378 24.0417 123.861 23.875 123.228 23.875C122.728 23.875 122.311 23.975 121.978 24.175C121.661 24.375 121.411 24.6333 121.228 24.95C121.045 25.25 120.911 25.5833 120.828 25.95C120.761 26.3167 120.728 26.6667 120.728 27V34H117.878V21.5H120.628V22.5C121.145 22.1 121.711 21.7917 122.328 21.575C122.961 21.3583 123.595 21.25 124.228 21.25C124.761 21.25 125.27 21.325 125.753 21.475C126.253 21.625 126.686 21.8583 127.053 22.175C127.42 22.4917 127.711 22.9 127.928 23.4C128.145 23.8833 128.253 24.4667 128.253 25.15V34ZM141.459 30.325C141.459 30.6917 141.576 30.9667 141.809 31.15C142.043 31.3167 142.351 31.4 142.734 31.4C142.901 31.4 143.068 31.3917 143.234 31.375C143.418 31.3417 143.626 31.3 143.859 31.25V34C143.426 34.0667 143.076 34.1083 142.809 34.125C142.543 34.1417 142.301 34.15 142.084 34.15C141.318 34.15 140.726 34.0583 140.309 33.875C139.893 33.675 139.543 33.3333 139.259 32.85C139.143 32.9333 138.976 33.0583 138.759 33.225C138.543 33.375 138.276 33.525 137.959 33.675C137.643 33.825 137.268 33.9583 136.834 34.075C136.401 34.1917 135.909 34.25 135.359 34.25C134.659 34.25 134.009 34.1417 133.409 33.925C132.809 33.6917 132.293 33.3833 131.859 33C131.426 32.6167 131.084 32.175 130.834 31.675C130.584 31.175 130.459 30.65 130.459 30.1C130.459 28.6833 131.001 27.6667 132.084 27.05C133.184 26.4167 134.593 26.1 136.309 26.1H138.709V25.5C138.709 24.8333 138.468 24.2917 137.984 23.875C137.518 23.4583 136.909 23.25 136.159 23.25C135.393 23.25 134.809 23.4417 134.409 23.825C134.009 24.2083 133.809 24.7667 133.809 25.5H130.759C130.759 24.8333 130.901 24.2333 131.184 23.7C131.468 23.1667 131.851 22.725 132.334 22.375C132.834 22.0083 133.418 21.7333 134.084 21.55C134.751 21.35 135.468 21.25 136.234 21.25C136.934 21.25 137.601 21.3333 138.234 21.5C138.868 21.65 139.418 21.8917 139.884 22.225C140.368 22.5583 140.751 22.975 141.034 23.475C141.318 23.975 141.459 24.5583 141.459 25.225V30.325ZM133.559 30.4C133.559 30.9 133.759 31.3333 134.159 31.7C134.559 32.0667 135.093 32.25 135.759 32.25C136.276 32.25 136.718 32.1583 137.084 31.975C137.451 31.775 137.751 31.5333 137.984 31.25C138.234 30.9667 138.418 30.6667 138.534 30.35C138.651 30.0333 138.709 29.75 138.709 29.5V28.25C137.626 28.2 136.743 28.225 136.059 28.325C135.393 28.4083 134.876 28.55 134.509 28.75C134.143 28.95 133.893 29.1917 133.759 29.475C133.626 29.7583 133.559 30.0667 133.559 30.4Z" fill="#313141"/>
</svg>
